<svg width="2783" height="1113" xmlns="http://www.w3.org/2000/svg" xmlns:xlink="http://www.w3.org/1999/xlink" xml:space="preserve" overflow="hidden"><defs><clipPath id="clip0"><rect x="356" y="182" width="2783" height="1113"/></clipPath></defs><g clip-path="url(#clip0)" transform="translate(-356 -182)"><rect x="1525.5" y="185.5" width="556" height="162" stroke="#000000" stroke-width="6.875" stroke-miterlimit="8" fill="none"/><text font-family="Calibri,Calibri_MSFontService,sans-serif" font-weight="400" font-size="83" transform="matrix(1 0 0 1 1787.17 294)">/</text><rect x="478.5" y="628.5" width="556" height="162" stroke="#000000" stroke-width="6.875" stroke-miterlimit="8" fill="none"/><text font-family="Calibri,Calibri_MSFontService,sans-serif" font-weight="400" font-size="83" transform="matrix(1 0 0 1 694.953 736)">de<tspan font-size="83" x="84.7916" y="0">v</tspan></text><rect x="1179.5" y="628.5" width="555" height="162" stroke="#000000" stroke-width="6.875" stroke-miterlimit="8" fill="none"/><text font-family="Calibri,Calibri_MSFontService,sans-serif" font-weight="400" font-size="83" transform="matrix(1 0 0 1 1359.27 736)">hom<tspan font-size="83" x="152.969" y="0">e</tspan></text><rect x="1879.5" y="628.5" width="556" height="162" stroke="#000000" stroke-width="6.875" stroke-miterlimit="8" fill="none"/><text font-family="Calibri,Calibri_MSFontService,sans-serif" font-weight="400" font-size="83" transform="matrix(1 0 0 1 2103.79 736)">bi<tspan font-size="83" x="62.448" y="0">n</tspan></text><rect x="2579.5" y="621.5" width="556" height="162" stroke="#000000" stroke-width="6.875" stroke-miterlimit="8" fill="none"/><text font-family="Calibri,Calibri_MSFontService,sans-serif" font-weight="400" font-size="83" transform="matrix(1 0 0 1 2805.06 730)">us<tspan font-size="83" x="75.625" y="0">r</tspan></text><path d="M0 0 1047.25 281.172" stroke="#000000" stroke-width="5.72917" stroke-miterlimit="8" fill="none" fill-rule="evenodd" transform="matrix(-1 0 0 1 1803.24 347)"/><path d="M0 0 346.837 281.172" stroke="#000000" stroke-width="5.72917" stroke-miterlimit="8" fill="none" fill-rule="evenodd" transform="matrix(-1 0 0 1 1802.84 347)"/><path d="M1803 347 2156.57 628.171" stroke="#000000" stroke-width="5.72917" stroke-miterlimit="8" fill="none" fill-rule="evenodd"/><path d="M1803 347 2856.98 621.435" stroke="#000000" stroke-width="5.72917" stroke-miterlimit="8" fill="none" fill-rule="evenodd"/><path d="M359.5 1152C359.5 1074.96 423.299 1012.5 502 1012.5 580.701 1012.5 644.5 1074.96 644.5 1152 644.5 1229.04 580.701 1291.5 502 1291.5 423.299 1291.5 359.5 1229.04 359.5 1152Z" stroke="#000000" stroke-width="6.875" stroke-miterlimit="8" fill="none" fill-rule="evenodd"/><text font-family="Calibri,Calibri_MSFontService,sans-serif" font-weight="400" font-size="83" transform="matrix(1 0 0 1 445.952 1179)">fd0</text><path d="M783.5 1152C783.5 1074.96 847.299 1012.5 926 1012.5 1004.7 1012.5 1068.5 1074.96 1068.5 1152 1068.5 1229.04 1004.7 1291.5 926 1291.5 847.299 1291.5 783.5 1229.04 783.5 1152Z" stroke="#000000" stroke-width="6.875" stroke-miterlimit="8" fill="none" fill-rule="evenodd"/><text font-family="Calibri,Calibri_MSFontService,sans-serif" font-weight="400" font-size="83" transform="matrix(1 0 0 1 862.216 1179)">hda</text><path d="M1807.5 1152C1807.5 1074.96 1871.3 1012.5 1950 1012.5 2028.7 1012.5 2092.5 1074.96 2092.5 1152 2092.5 1229.04 2028.7 1291.5 1950 1291.5 1871.3 1291.5 1807.5 1229.04 1807.5 1152Z" stroke="#000000" stroke-width="6.875" stroke-miterlimit="8" fill="none" fill-rule="evenodd"/><text font-family="Calibri,Calibri_MSFontService,sans-serif" font-weight="400" font-size="83" transform="matrix(1 0 0 1 1923.7 1179)">l<tspan font-size="83" x="18.9063" y="0">s</tspan></text><path d="M2231.5 1152C2231.5 1074.96 2295.3 1012.5 2374 1012.5 2452.7 1012.5 2516.5 1074.96 2516.5 1152 2516.5 1229.04 2452.7 1291.5 2374 1291.5 2295.3 1291.5 2231.5 1229.04 2231.5 1152Z" stroke="#000000" stroke-width="6.875" stroke-miterlimit="8" fill="none" fill-rule="evenodd"/><text font-family="Calibri,Calibri_MSFontService,sans-serif" font-weight="400" font-size="83" transform="matrix(1 0 0 1 2334.24 1179)">c<tspan font-size="83" x="34.9478" y="0">p</tspan></text><path d="M0 0 254.73 222.245" stroke="#000000" stroke-width="5.72917" stroke-miterlimit="8" fill="none" fill-rule="evenodd" transform="matrix(-1 0 0 1 755.73 790)"/><path d="M756 790 925.555 1012.24" stroke="#000000" stroke-width="5.72917" stroke-miterlimit="8" fill="none" fill-rule="evenodd"/><path d="M0 0 207.587 222.246" stroke="#000000" stroke-width="5.72917" stroke-miterlimit="8" fill="none" fill-rule="evenodd" transform="matrix(-1 0 0 1 2156.59 790)"/><path d="M2157 790 2373.7 1012.25" stroke="#000000" stroke-width="5.72917" stroke-miterlimit="8" fill="none" fill-rule="evenodd"/></g></svg>